# xmcd
#
# Track frame offsets: 
#        150
#        22278
#        46809
#        67047
#        83937
#        102231
#        120687
#        145299
#        164484
#        186612
#
# Disc length: 2777 seconds
#
# Revision: 0
# Processed by: cddbd v1.5.2PL0 Copyright (c) Steve Scherf et al.
# Submitted via: ExactAudioCopy v1.0b1
#
DISCID=960ad70a
DTITLE=Cam Ly - Nguoi Den Sau... Sao Anh Ra Di
DYEAR=2005
DGENRE=Pop
TTITLE0=Nguoi Den Sau (Hoai An)
TTITLE1=Chim Trang Mo Coi (Minh Vy phong tho Hong Xuong Long)
TTITLE2=Hai Trai Tim Xa La (Anh Vu)
TTITLE3=Van Vuong Mot Nu Hong (Thai Khang)
TTITLE4=Sao Anh Ra Di (Minh Vy)
TTITLE5=Nguoi Oi Ta Chia Tay (Hoai An)
TTITLE6=Vong Kim Lang (Minh Vy)
TTITLE7=Em Chi Yeu Mot Nguoi (Nguyen Van Chung)
TTITLE8=Roi Nguoi Se Co... (Minh Kha, Chau Tuan)
TTITLE9=LK: Don Xuan, Xuan Da Ve (Minh Ky, Pham Dinh Chuong)
EXTD=
EXTT0=
EXTT1=
EXTT2=
EXTT3=
EXTT4=
EXTT5=
EXTT6=
EXTT7=
EXTT8=
EXTT9=
PLAYORDER=
